<svg xmlns="http://www.w3.org/2000/svg" width="192" height="192" fill="none" xmlns:v="https://vecta.io/nano"><g clip-path="url(#A)" fill="#003b44"><use href="#B"/><use href="#C"/><use href="#B"/><use href="#C"/><use href="#B"/><use href="#C"/></g><defs><clipPath id="A"><path fill="#fff" transform="translate(31 26)" d="M0 0h131v141H0z"/></clipPath><path id="B" d="M155.42 95.347c-.216-20.629-4.169-45.572-23.573-56.784-17.789-10.287-51.307-10.048-69.545-.684-17.72 8.963-24.054 30.038-24.934 48.738-.903 20.641.016 45.976 15.32 61.359 10.515 10.448 26.232 13.347 40.522 13.833 10.837.22 22.263-.627 32.53-4.639 24.572-9.541 30.067-38.068 29.681-61.716v-.106h-.001zm-48.816-68.816c19.447 1.865 38.672 12.774 47.287 30.615 8.036 16.871 9.645 37.969 6.813 56.384-4.037 25.967-18.666 44.99-44.882 51.235-16.031 3.632-35.089 3.105-50.189-3.556-23.032-10.168-33.776-32.812-34.434-57.213-.914-19.429.929-40.801 13.565-56.347C59.832 29.056 83.705 24.254 106.5 26.52l.104.011z"/><path id="C" d="M115.436 135.857h.463l22.773-56.784c2.222-5.465 4.259-8.153 6.298-9.353v-.558h-13.704v.558c2.871 1.571 3.518 5.835 1.574 10.741l-13.98 35.016-18.983-46.502h-.457l-20 46.411-14.352-36.5c-1.664-4.351-1.201-7.594 1.481-9.166v-.558H46.557v.558c2.13 1.11 3.701 3.422 5.647 8.149l23.517 57.988h.459L95.992 88.89l19.444 46.967z"/></defs></svg>